<svg xmlns="http://www.w3.org/2000/svg" xmlns:xlink="http://www.w3.org/1999/xlink" viewBox="0 0 32 32" width="47" height="47" style="" filter="none">
    
    <g>
    <path d="M22.667 5.333c-2.209 0-4 1.791-4 4s1.791 4 4 4c2.209 0 4-1.791 4-4s-1.791-4-4-4zM22.667 3.556c3.191 0 5.778 2.587 5.778 5.778s-2.587 5.778-5.778 5.778c-3.191 0-5.778-2.587-5.778-5.778s2.587-5.778 5.778-5.778zM5.333 5.333v8h8v-8h-8zM5.333 3.556h8c0.982 0 1.778 0.796 1.778 1.778v8c0 0.982-0.796 1.778-1.778 1.778h-8c-0.982 0-1.778-0.796-1.778-1.778v-8c0-0.982 0.796-1.778 1.778-1.778zM5.333 18.667v8h8v-8h-8zM5.333 16.889h8c0.982 0 1.778 0.796 1.778 1.778v8c0 0.982-0.796 1.778-1.778 1.778h-8c-0.982 0-1.778-0.796-1.778-1.778v-8c0-0.982 0.796-1.778 1.778-1.778zM18.667 18.667v8h8v-8h-8zM18.667 16.889h8c0.982 0 1.778 0.796 1.778 1.778v8c0 0.982-0.796 1.778-1.778 1.778h-8c-0.982 0-1.778-0.796-1.778-1.778v-8c0-0.982 0.796-1.778 1.778-1.778z" fill="rgba(248,169,202,0.58)"></path>
    </g>
  </svg>